<svg xmlns="http://www.w3.org/2000/svg" xml:space="preserve" id="Layer_1" x="0" y="0" style="enable-background:new -0.2 4 160.9 40" version="1.1" viewBox="-0.2 4 160.9 40">
<style>.st0{fill-rule:evenodd;clip-rule:evenodd;fill:#3b3a39}</style>
<path d="M7 21.1h13.3c-.7-3.1-3.5-5.3-6.5-5.3-3.1 0-5.9 2.1-6.8 5.3zm-.4 4.2c.3 4.1 3.6 7.4 7.9 7.4 3.6 0 5.6-1.8 7-3.3l3.2 3.1C23 34.7 19.5 37 14.5 37 7.3 37 1.8 31.6 1.8 24.2c0-7.3 5-12.7 11.9-12.7 6.8 0 11.8 5.5 11.8 12.7 0 .2 0 .6-.1 1H6.6zM89 21.1h13.3c-.7-3.1-3.5-5.3-6.5-5.3-3.1 0-6 2.1-6.8 5.3zm-.5 4.2c.3 4.1 3.6 7.4 7.9 7.4 3.6 0 5.6-1.8 7-3.3l3.2 3.1c-1.8 2.3-5.3 4.6-10.3 4.6-7.1 0-12.6-5.4-12.6-12.7 0-7.3 5-12.7 11.9-12.7 6.8 0 11.8 5.5 11.8 12.7 0 .2 0 .6-.1 1H88.5zM140.1 32.3c4.5 0 7.7-3.6 7.7-8.1s-3.2-8.1-7.7-8.1-7.7 3.6-7.7 8.1 3.1 8.1 7.7 8.1zm0-20.8c7.2 0 12.6 5.5 12.6 12.7S147.3 37 140.1 37c-7.2 0-12.6-5.5-12.6-12.7s5.3-12.8 12.6-12.8zm-14.4 25c-.9.3-2.4.5-3.8.5-3.1 0-5.4-1.1-6.9-2.9-1.5-1.6-2-3.8-2-6.5V16.4h-2.7V12h2.7V9.3l4.9-3.1V12h5.2v4.4h-5.2v11.4c0 1.3.1 2.4.7 3.1.7.8 2.1 1.3 3.4 1.3.7 0 2-.1 2.7-.3l1 4.6" class="st0"/>
<path d="m34.6 25.2-8.4 11.2h7.1l4.8-6.5-3.5-4.7m9.4-3.1L55.8 6.2h-7l-8.4 11.2 3.6 4.7M34.1 12h-7l18.2 24.5h7.1L34.1 12" style="fill-rule:evenodd;clip-rule:evenodd;fill:#2573ab"/>
<text style="font-size:6.4761px;font-family:&quot;HelveticaNeueLTStd-Lt&quot;;fill:#1b1a19" transform="translate(150.748 15.761)">®</text>
<path d="M67.8 32.3c-2.5 0-5-1.2-6.7-3.5v-9.2c1.5-2 4-3.5 7-3.5 4.7 0 7.9 3.8 7.9 8.1-.1 4.4-3.5 8.1-8.2 8.1zM74.5 13c-1.7-1-3.7-1.6-6-1.6-2.8 0-5.4.8-7.6 2.8V12h-4.8v30l4.9 6.6V34.3c2 1.7 4.5 2.7 7.4 2.7 2.2 0 4.5-.6 6.1-1.6 3.7-2.2 6.2-6.2 6.2-11.1.1-5-2.5-9.1-6.2-11.3z" class="st0"/>
</svg>