<?xml version="1.0" encoding="utf-8"?>
<!-- Generator: Adobe Illustrator 22.1.0, SVG Export Plug-In . SVG Version: 6.00 Build 0)  -->
<svg version="1.1" id="Layer_1" xmlns="http://www.w3.org/2000/svg" xmlns:xlink="http://www.w3.org/1999/xlink" x="0px" y="0px"
	 viewBox="0 0 1820 1214" style="enable-background:new 0 0 1820 1214;" xml:space="preserve">
<style type="text/css">
	.st0{fill:#362112;}
	.st1{display:none;opacity:0.31;fill:url(#SVGID_1_);}
</style>
<g>
	<g>
		<g>
			<path class="st0" d="M748.6,890.9c0.6,2.7,2.4,4.3,5.7,4.3c3.7,0,5.1-1.8,5.1-4c0-2.3-1-3.7-5.5-4.8c-4.3-1.1-6.1-2.5-6.1-5.4
				c0-2.7,1.9-5.1,6.3-5.1c4.4,0,6.3,2.7,6.6,5.2h-1.6c-0.5-2.2-1.9-3.7-5-3.7c-2.9,0-4.5,1.4-4.5,3.6c0,2.2,1.3,3.1,5,4
				c5.7,1.4,6.5,3.7,6.5,6.1c0,3-2.2,5.5-6.8,5.5c-5,0-6.9-2.9-7.3-5.7H748.6z"/>
			<path class="st0" d="M778.8,889.1c0,4-2.2,7.6-6.5,7.6c-3.9,0-6.3-3.2-6.3-7.6c0-4.1,2.3-7.6,6.5-7.6
				C776.3,881.5,778.8,884.5,778.8,889.1z M767.5,889.1c0,3.4,1.8,6.2,4.9,6.2c3.1,0,4.9-2.6,4.9-6.2c0-3.4-1.7-6.2-4.9-6.2
				C769.1,882.9,767.5,885.6,767.5,889.1z"/>
			<path class="st0" d="M785,896.3v-13.1h-2.5v-1.4h2.5v-2c0-2.4,0.7-5.1,3.9-5.1c0.4,0,1.1,0.1,1.4,0.2v1.4
				c-0.4-0.1-1.1-0.2-1.6-0.2c-1.7,0-2.3,1.2-2.3,3.7v2h3.1v1.4h-3.1v13.1H785z"/>
			<path class="st0" d="M791.8,881.9h2.7v-4.5h1.4v4.5h3.4v1.4H796v9.4c0,1.6,0.3,2.5,1.7,2.5c0.4,0,1,0,1.5-0.2v1.3
				c-0.5,0.2-1.2,0.3-1.8,0.3c-1.8,0-2.9-0.9-2.9-3.2v-10h-2.7V881.9z"/>
			<path class="st0" d="M804.5,881.9c2.1,7.4,3.4,11.7,3.6,13h0c0.2-1.2,1.7-5.7,3.9-13h1.6c2.7,8.9,3.5,11.5,3.8,12.6h0
				c0.4-1.6,1.1-3.8,3.7-12.6h1.5l-4.6,14.4h-1.6c-1.6-5.1-3.4-11.4-3.7-12.7h0c-0.3,1.4-1.9,6.6-3.8,12.7h-1.7l-4.2-14.4H804.5z"/>
			<path class="st0" d="M838,893.6c0,1.3,0.1,2.3,0.2,2.7h-1.4c-0.1-0.3-0.2-1-0.3-2.2c-0.5,1.1-1.8,2.6-4.7,2.6
				c-3.3,0-4.8-2.2-4.8-4.3c0-3.2,2.5-4.6,6.8-4.6c1.2,0,2.2,0,2.7,0v-1.5c0-1.4-0.4-3.4-3.7-3.4c-2.9,0-3.3,1.5-3.7,2.7h-1.4
				c0.2-1.6,1.2-4,5.1-4c3.3,0,5.1,1.4,5.1,4.6V893.6z M836.6,889c-0.5,0-1.9,0-2.8,0c-3.2,0-5.2,0.8-5.2,3.3c0,1.8,1.3,3.1,3.3,3.1
				c4.1,0,4.7-2.7,4.7-5.9V889z"/>
			<path class="st0" d="M844.9,885.8c0-2.4,0-3.5,0-3.9h1.4c0,0.5,0.1,1.4,0.1,3.2c0.8-2.2,2.7-3.5,5-3.6v1.6c-3,0.2-5,2.3-5,5.7
				v7.5h-1.4V885.8z"/>
			<path class="st0" d="M856.7,889.3c0,3.7,1.9,6,4.7,6c2.7,0,3.6-1.5,4.2-2.7h1.5c-0.6,1.9-2.1,4.1-5.7,4.1c-4.4,0-6.1-3.8-6.1-7.4
				c0-4.1,2-7.7,6.3-7.7c4.4,0,5.9,3.8,5.9,6.5c0,0.4,0,0.8,0,1.2H856.7z M865.9,888c0-2.9-1.6-5.1-4.4-5.1c-3,0-4.3,2.1-4.6,5.1
				H865.9z"/>
			<path class="st0" d="M893.9,875v17.1c0,1.4,0,2.7,0,4.2h-1.4c-0.1-0.3-0.1-1.7-0.1-2.4c-0.7,1.8-2.3,2.8-4.8,2.8
				c-3.8,0-6-3.1-6-7.4c0-4.4,2.5-7.7,6.4-7.7c2.9,0,4,1.2,4.5,2.2V875H893.9z M883.1,889.2c0,4,2,6.1,4.5,6.1
				c3.8,0,4.8-2.6,4.8-6.5c0-3.7-0.9-5.9-4.6-5.9C885,882.9,883.1,885.2,883.1,889.2z"/>
			<path class="st0" d="M901.1,889.3c0,3.7,1.9,6,4.7,6c2.7,0,3.6-1.5,4.2-2.7h1.5c-0.6,1.9-2.1,4.1-5.7,4.1c-4.4,0-6.1-3.8-6.1-7.4
				c0-4.1,2-7.7,6.3-7.7c4.4,0,5.9,3.8,5.9,6.5c0,0.4,0,0.8,0,1.2H901.1z M910.2,888c0-2.9-1.6-5.1-4.4-5.1c-3,0-4.3,2.1-4.6,5.1
				H910.2z"/>
			<path class="st0" d="M917.1,881.9c2.3,6.6,4,11.1,4.5,13h0c0.3-1.1,1.9-5.4,4.7-13h1.5l-5.5,14.4h-1.7l-5.1-14.4H917.1z"/>
			<path class="st0" d="M933.2,889.3c0,3.7,1.9,6,4.7,6c2.7,0,3.6-1.5,4.2-2.7h1.5c-0.6,1.9-2.1,4.1-5.7,4.1c-4.4,0-6.1-3.8-6.1-7.4
				c0-4.1,2-7.7,6.3-7.7c4.4,0,5.9,3.8,5.9,6.5c0,0.4,0,0.8,0,1.2H933.2z M942.3,888c0-2.9-1.6-5.1-4.4-5.1c-3,0-4.3,2.1-4.6,5.1
				H942.3z"/>
			<path class="st0" d="M949.5,896.3V875h1.4v21.3H949.5z"/>
			<path class="st0" d="M969.5,889.1c0,4-2.2,7.6-6.5,7.6c-3.9,0-6.3-3.2-6.3-7.6c0-4.1,2.3-7.6,6.5-7.6
				C967,881.5,969.5,884.5,969.5,889.1z M958.2,889.1c0,3.4,1.8,6.2,4.9,6.2c3.1,0,4.9-2.6,4.9-6.2c0-3.4-1.7-6.2-4.9-6.2
				C959.8,882.9,958.2,885.6,958.2,889.1z"/>
			<path class="st0" d="M976.7,894.2v7.9h-1.4v-16.6c0-1.2,0-2.5,0-3.5h1.4c0.1,0.5,0.1,1.4,0.1,2.6c0.9-1.7,2.5-2.9,5.1-2.9
				c3.4,0,5.8,2.9,5.8,7.2c0,5.2-2.8,7.9-6.3,7.9C978.8,896.7,977.4,895.5,976.7,894.2z M986,888.8c0-3.3-1.6-5.9-4.5-5.9
				c-3.5,0-4.9,2.2-4.9,6.1c0,3.9,1.1,6.3,4.7,6.3C984.4,895.3,986,892.8,986,888.8z"/>
			<path class="st0" d="M993.3,885.6c0-1.2,0-2.6,0-3.7h1.4c0,0.5,0.1,1.7,0.1,2.6c0.6-1.4,1.9-2.9,4.3-2.9c2,0,3.6,1,4.2,2.9
				c0.7-1.5,2.2-2.9,4.7-2.9c2.2,0,4.5,1.3,4.5,5.3v9.5h-1.4V887c0-1.9-0.7-4-3.4-4c-2.8,0-4.1,2.2-4.1,5v8.3h-1.4V887
				c0-2.1-0.6-4.1-3.3-4.1c-2.8,0-4.2,2.5-4.2,5.4v7.9h-1.4V885.6z"/>
			<path class="st0" d="M1019.7,889.3c0,3.7,1.9,6,4.7,6c2.7,0,3.6-1.5,4.2-2.7h1.5c-0.6,1.9-2.1,4.1-5.7,4.1
				c-4.4,0-6.1-3.8-6.1-7.4c0-4.1,2-7.7,6.3-7.7c4.4,0,5.9,3.8,5.9,6.5c0,0.4,0,0.8,0,1.2H1019.7z M1028.9,888
				c0-2.9-1.6-5.1-4.4-5.1c-3,0-4.3,2.1-4.6,5.1H1028.9z"/>
			<path class="st0" d="M1036.1,885.5c0-1.3,0-2.5,0-3.6h1.4c0.1,0.5,0.1,2.3,0.1,2.7c0.6-1.5,1.8-3.1,4.8-3.1
				c2.6,0,4.8,1.4,4.8,5.4v9.3h-1.4v-9.1c0-2.6-1.1-4.2-3.6-4.2c-3.4,0-4.6,2.9-4.6,6v7.4h-1.4V885.5z"/>
			<path class="st0" d="M1051.9,881.9h2.7v-4.5h1.4v4.5h3.4v1.4h-3.4v9.4c0,1.6,0.3,2.5,1.7,2.5c0.4,0,1,0,1.5-0.2v1.3
				c-0.5,0.2-1.2,0.3-1.8,0.3c-1.8,0-2.9-0.9-2.9-3.2v-10h-2.7V881.9z"/>
		</g>
	</g>
</g>
<g>
	<g>
		<g>
			<path class="st0" d="M672.4,825.9l4-4.1c7.9,9.2,19.5,15.1,32.5,15.1c17.3,0,28.3-9.4,28.3-23c0-14.3-9.2-18.8-20-23.8l-16.8-7.6
				c-9.3-4.1-22.2-10.7-22.2-26.9c0-15.6,13.3-26.3,31-26.3c13.2,0,23.6,6.1,29.9,12.9l-3.6,4c-6.3-6.9-15.2-11.5-26.3-11.5
				c-15,0-25.1,8.1-25.1,20.5c0,13.3,11.3,18.4,19.1,21.8l16.8,7.5c12.1,5.5,23.1,12,23.1,28.8c0,16.6-13.6,28.9-34.3,28.9
				C692.8,842.4,680.8,835.5,672.4,825.9z"/>
			<path class="st0" d="M753.4,721.1h5.6v35.2l0,17.8c8.5-8.5,16.8-14.8,27.7-14.8c16.3,0,23.9,9.7,23.9,30.2v50.9H805v-50.2
				c0-17.3-5.5-25.8-18.9-25.8c-9.8,0-17,5.2-27,15.6v60.4h-5.6V721.1z"/>
			<path class="st0" d="M820.8,801c0-25.8,16.6-41.7,34.2-41.7c18.4,0,29.9,13,29.9,36.5c0,1.7,0,3.5-0.4,5.5h-57.9
				c0.1,20.9,12.2,36.1,30.8,36.1c8.8,0,15.7-2.9,21.7-7.2l2.5,4.7c-6,3.7-12.8,7.7-24.6,7.7C837,842.4,820.8,826.9,820.8,801z
				 M879.5,796.2c0-21.4-9.7-31.8-24.4-31.8c-14,0-26.7,12-28.3,31.8H879.5z"/>
			<path class="st0" d="M887.7,801c0-25.8,16.6-41.7,34.2-41.7c18.4,0,29.9,13,29.9,36.5c0,1.7,0,3.5-0.4,5.5h-57.9
				c0.1,20.9,12.2,36.1,30.8,36.1c8.8,0,15.7-2.9,21.7-7.2l2.5,4.7c-6,3.7-12.8,7.7-24.6,7.7C903.9,842.4,887.7,826.9,887.7,801z
				 M946.3,796.2c0-21.4-9.7-31.8-24.4-31.8c-14,0-26.7,12-28.3,31.8H946.3z"/>
			<path class="st0" d="M961.4,761.3h4.8l0.7,10.2h0.3c7.9-6.3,17.4-12.2,27.3-12.2c21.4,0,31.8,15.9,31.8,40.4
				c0,26.8-16.2,42.7-35,42.7c-7.6,0-15.8-3.6-24.3-9.9l0,14.8v29.6h-5.6V761.3z M1020.4,799.7c0-20-7.2-35.3-26.4-35.3
				c-8.2,0-16.9,4.9-27,13.7v48.4c9.4,7.8,18.2,10.7,24.4,10.7C1008.3,837.3,1020.4,821.7,1020.4,799.7z"/>
			<path class="st0" d="M1037.9,731.8h12.3v108.7h-12.3V731.8z"/>
			<path class="st0" d="M1090.9,742.2h-33.3v-10.4h78.9v10.4h-33.3v98.3h-12.3V742.2z"/>
		</g>
	</g>
</g>
<radialGradient id="SVGID_1_" cx="1016.5842" cy="914.4775" r="280.5978" gradientTransform="matrix(1.2131 0 0 0.1527 -330.3621 880.3981)" gradientUnits="userSpaceOnUse">
	<stop  offset="0" style="stop-color:#B6B7BC"/>
	<stop  offset="0.3956" style="stop-color:#D9DADC"/>
	<stop  offset="0.7775" style="stop-color:#F5F5F6"/>
	<stop  offset="1" style="stop-color:#FFFFFF"/>
</radialGradient>
<ellipse class="st1" cx="902.9" cy="1020" rx="350.2" ry="48.4"/>
<g>
	<g>
		<path class="st0" d="M1075.4,311H730.3c-36.2,0-65.5,29.3-65.5,65.5v200.5c0,18.1,6.8,35.8,19.8,48.5c12.3,12,28.5,18.5,45.7,18.5
			c0,0,0,0,0,0l91-0.1v-61.6l-12,0.5c-34.3-0.1-62.2-28-62.2-62.3c0-7,1.1-13.8,3.4-20.3l2.4-7.1l-7.4-1.4
			c-14.4-2.7-24.5-16-22.8-31c1.6-14.4,14.3-25,28.8-25h5.7v-6.5c0-23.5,19.1-42.5,42.5-42.5c7.8,0,15.4,2.1,22,6.1l6.1,3.7l3.1-6.5
			c6.9-14.4,21.7-23.8,37.7-23.8c19.5,0,36.6,13.8,40.7,32.8l1.7,7.8l7.3-3.3c4.7-2.1,10.1-2.2,14.8-0.5c-0.6,0.7-1.2,1.4-1.8,2.1
			c-0.3,0.4-0.6,0.8-0.9,1.1c-0.5,0.6-1,1.3-1.4,1.9c-0.5,0.7-1,1.4-1.4,2.1c-1,1.5-1.8,3.1-2.6,4.7c-0.2,0.3-0.3,0.7-0.5,1
			c-0.3,0.7-0.6,1.4-0.9,2.1c0,0,0,0,0,0.1c-0.3,0.7-0.6,1.5-0.8,2.2c-0.1,0.3-0.2,0.6-0.3,0.9c-0.3,0.8-0.5,1.6-0.8,2.4
			c-0.3,1-0.5,1.9-0.7,2.9c-0.2,1-0.4,1.9-0.6,2.9v0.1c-0.2,1-0.3,1.9-0.4,2.9c-0.1,0.8-0.2,1.7-0.2,2.5c0,0.3,0,0.5,0,0.8
			c-0.1,0.9-0.1,1.8-0.1,2.7c0,3.2,0.3,6.3,0.8,9.4c0.3,1.9,0.8,3.7,1.3,5.5c-9.1,8.5-15.2,16.5-18.8,22c-2.9,4.4-4.3,7.3-4.4,7.6
			l0,0.1c-2.4,6-2.8,12.6-0.6,18.6c2.4,6.6,7.3,11.8,13.7,14.5c12.7,5.4,27.4-0.4,32.9-13l9-17.4c1.5,0.8,3,1.7,4.4,2.7
			c0,1,0,2,0.1,3c0,0.6,0.1,1.2,0.1,1.8c0,0.1,0,0.2,0,0.2c0,0.5,0.1,0.9,0.1,1.4c0.1,0.5,0.1,0.9,0.2,1.3c0.1,0.9,0.4,2.4,0.6,3.3
			c0.1,0.5,0.2,1,0.3,1.5c0.4,1.6,0.8,3.1,1.3,4.7c0.1,0.3,0.2,0.7,0.4,1c0.3,0.8,0.5,1.6,0.9,2.3c0.3,0.7,0.5,1.4,0.8,2.1
			c0.2,0.3,0.3,0.7,0.5,1c0.2,0.5,0.5,1,0.7,1.5c0.2,0.5,0.5,1,0.8,1.4c0.3,0.5,0.5,1,0.9,1.5c0.1,0.3,0.3,0.5,0.5,0.8
			c0.3,0.6,0.7,1.3,1.1,1.9c0.2,0.2,0.3,0.5,0.5,0.7c0.4,0.6,0.8,1.2,1.2,1.8c0.5,0.7,1.1,1.5,1.7,2.2c0.6,0.8,1.3,1.6,1.9,2.4
			c1.4,1.6,3,3.2,4.6,4.7c-2.5,23.2-22,41-45.8,41l-41.6,0.3l-0.4,104.9h-75.3c-5.4,0-9.7,4.3-9.7,9.7c0,2.7,1.1,5.1,2.8,6.9
			s4.2,2.8,6.9,2.8h166.9c5.4,0,9.7-4.3,9.7-9.7c0-2.7-1.1-5.1-2.8-6.9c-1.8-1.8-4.2-2.8-6.9-2.8h-78.7l0.4-92.1l28.8-0.2
			c27.9,0,51.3-19.2,57.4-45.3c10.1,5.8,21.7,9,33.7,9c35.6,0,64.6-27.4,64.6-61.1c0-30.7-27.9-57.5-62.1-60.7
			c-5.3-24.1-26.8-41.7-52-41.7c-10.4,0-20.6,3.1-29.2,8.7c-5.1-3.3-11.2-5.1-17.4-5.1c-2.1,0-4.2,0.2-6.2,0.6
			c-7.7-21.4-28.3-36.2-51.4-36.2c-18.7,0-36.2,9.7-46.1,25.3c-7.1-3.2-14.8-4.8-22.7-4.8c-28.6,0-52.1,21.7-55.1,49.5
			c-19.8,3-35,20.1-35,40.7c0,17.4,10.9,32.6,26.7,38.5c-1.4,5.9-2.2,11.9-2.2,18c0,41.1,33.2,74.7,74.2,75.2v35.3l-78.1,0
			c0,0,0,0,0,0c-14,0-27.2-5.5-37.2-15.4c-9.9-9.9-15.4-23.1-15.4-37.2v-202c0-29,23.5-52.6,52.6-52.6h345.1
			c29,0,52.6,23.5,52.6,52.6v198.2c0,29.1-23.6,52.6-52.6,52.6H972.3c-3.6,0-6.5,2.9-6.5,6.5c0,1.8,0.7,3.4,1.9,4.6
			c1.2,1.2,2.8,1.9,4.6,1.9h103.2c36.2,0,65.5-29.3,65.5-65.5V376.5C1141,340.3,1111.6,311,1075.4,311z M947.6,407.3
			c7.2-5.8,16-8.9,25.2-8.9c20.5,0,37.7,15.3,40.1,35.6l0.7,5.6l5.6,0.1c29.2,0.7,54.8,23.1,54.8,48.1c0,17.4-10,32.7-24.8,41.1
			c-3.8-2.3-11.4-7.8-18.2-17.7c-1.9-2.8-5.6-3.6-8.5-1.9c-2.1,1.2-3.3,3.4-3.3,5.6c0,1.3,0.4,2.5,1.1,3.7c4.8,7,10,12.2,14.4,15.9
			c-4,0.9-8.2,1.4-12.4,1.4c-12.8,0-25-4.4-34.5-12.3c-10.9-9.1-17.2-22.2-17.2-35.8c0-0.7,0-1.3,0-2l0.1-1.6l-23.8-14l-3.2,6.2
			l-11,21.3l-0.2,0.4c-2.6,6.2-9.8,9.1-16,6.4c-3-1.3-5.3-3.6-6.5-6.7c-1.2-3-1.2-6.2,0.1-9.2c0.2-0.5,1.3-2.7,3.5-5.9
			c3.6-5.4,9.9-13.7,19.7-22.3l3.4-3l-1.6-4.2c-0.9-2.4-1.6-4.9-2.1-7.4c-0.4-2.3-0.6-4.7-0.6-7.1
			C932.6,426.5,938.1,415,947.6,407.3z"/>
		<circle class="st0" cx="994" cy="446.5" r="7.4"/>
	</g>
</g>
</svg>
