<?xml version="1.0" standalone="no"?>
<!DOCTYPE svg PUBLIC "-//W3C//DTD SVG 20010904//EN"
 "http://www.w3.org/TR/2001/REC-SVG-20010904/DTD/svg10.dtd">
<svg version="1.0" xmlns="http://www.w3.org/2000/svg"
 width="179.000000pt" height="44.000000pt" viewBox="0 0 179.000000 44.000000"
 preserveAspectRatio="xMidYMid meet">
<g transform="translate(0.000000,44.000000) scale(0.100000,-0.100000)"
stroke="none">
<!-- Geometric symbol parts in purple/violet -->
<path d="M46 337 c-39 -87 -41 -70 14 -192 l23 -49 38 83 38 83 -38 76 -39 77
-36 -78z" fill="#8B5CF6"/>
<path d="M148 377 c-15 -31 -14 -35 4 -71 20 -38 20 -41 2 -91 -15 -46 -16
-57 -4 -85 l13 -33 40 78 39 78 -33 71 c-17 39 -35 74 -38 79 -4 4 -14 -8 -23
-26z" fill="#7C3AED"/>
<path d="M228 385 c-14 -26 -14 -32 8 -78 l23 -50 -20 -38 c-22 -44 -23 -65
-5 -97 12 -23 14 -20 49 57 l37 81 -38 77 -39 77 -15 -29z" fill="#6D28D9"/>
<!-- Text parts in black -->
<path d="M800 260 l0 -150 39 0 40 0 3 50 3 51 40 -51 c38 -48 42 -50 89 -50
55 0 56 -8 -12 73 -18 21 -32 41 -32 46 0 4 16 26 35 48 19 23 35 44 35 47 0
3 -19 6 -43 6 -40 0 -46 -4 -78 -46 l-34 -46 -3 86 -3 86 -39 0 -40 0 0 -150z" fill="#000000"/>
<path d="M393 348 c-55 -56 -62 -68 -39 -68 10 0 15 -18 18 -64 5 -82 24 -106
84 -106 60 0 74 8 74 40 0 25 -3 27 -37 26 l-38 -1 -3 53 -3 52 35 0 c32 0 36
3 36 25 0 22 -4 25 -34 25 -33 0 -35 2 -38 35 l-3 36 -52 -53z" fill="#000000"/>
<path d="M614 330 c-52 -16 -79 -54 -78 -112 0 -44 5 -55 32 -80 28 -24 41
-28 91 -28 51 0 63 4 90 29 27 25 31 36 31 81 0 44 -4 56 -29 81 -16 16 -38
29 -48 29 -10 0 -27 2 -38 4 -11 3 -34 1 -51 -4z m70 -66 c20 -20 20 -68 0
-88 -18 -19 -20 -19 -44 -6 -26 14 -34 57 -15 86 18 28 37 30 59 8z" fill="#000000"/>
<path d="M1113 329 c-46 -13 -73 -53 -73 -106 0 -38 5 -50 34 -79 31 -31 40
-34 90 -34 65 0 106 16 106 41 0 17 -6 18 -58 13 -49 -5 -61 -3 -77 12 -18 19
-17 19 58 22 l77 3 0 32 c0 42 -24 75 -66 93 -38 16 -46 16 -91 3z m77 -58
c15 -29 13 -31 -30 -31 -41 0 -52 14 -28 38 18 18 46 14 58 -7z" fill="#000000"/>
<path d="M1398 326 c-16 -8 -28 -11 -28 -5 0 5 -18 9 -40 9 l-40 0 0 -110 0
-110 35 0 35 0 0 65 c0 52 4 69 20 85 41 41 58 21 62 -70 l3 -75 38 -3 37 -3
0 91 c0 83 -2 93 -25 115 -27 28 -58 31 -97 11z" fill="#000000"/>
<path d="M1544 298 c7 -18 26 -61 41 -96 l28 -62 -27 -59 c-14 -32 -26 -61
-26 -65 0 -3 16 -6 36 -6 39 0 28 -17 150 248 l33 72 -38 0 c-35 0 -39 -3 -62
-51 l-24 -52 -22 52 c-22 49 -24 51 -63 51 l-40 0 14 -32z" fill="#000000"/>
</g>
</svg>